<svg xmlns="http://www.w3.org/2000/svg" viewBox="0 0 256 256"><defs><linearGradient id="j1" x1="98%" y1="0%" x2="59%" y2="41%"><stop offset="18%" stop-color="#0052CC"/><stop offset="100%" stop-color="#2684FF"/></linearGradient><linearGradient id="j2" x1="100%" y1="0%" x2="55%" y2="45%"><stop offset="18%" stop-color="#0052CC"/><stop offset="100%" stop-color="#2684FF"/></linearGradient></defs><path d="M244.66 0H121.71c0 14.72 5.85 28.84 16.25 39.25 10.41 10.41 24.53 16.25 39.25 16.25h22.65v21.87c.02 30.63 24.84 55.45 55.47 55.47V10.67C255.32 4.78 250.55 0 244.66 0Z" fill="#2684FF"/><path d="M183.82 61.26H60.87c.02 30.63 24.84 55.45 55.47 55.47h22.65v21.94c.04 30.63 24.87 55.43 55.5 55.43V71.93c0-5.89-4.78-10.67-10.67-10.67Z" fill="url(#j1)"/><path d="M122.95 122.49H0c0 30.65 24.85 55.5 55.5 55.5h22.72v21.87c.02 30.6 24.8 55.41 55.4 55.47V133.16c0-5.89-4.78-10.67-10.67-10.67Z" fill="url(#j2)"/></svg>
